<?xml version="1.0" encoding="UTF-8"?>
<svg xmlns="http://www.w3.org/2000/svg" xmlns:xlink="http://www.w3.org/1999/xlink" width="13px" height="13px" viewBox="0 0 13 13" version="1.1">
<g id="surface1">
<path style=" stroke:none;fill-rule:evenodd;fill:rgb(0%,0%,0%);fill-opacity:1;" d="M 10.824219 1.605469 C 10.679688 1.457031 10.441406 1.457031 10.296875 1.605469 L 4.703125 7.171875 C 4.558594 7.320312 4.320312 7.320312 4.175781 7.171875 L 1.722656 4.675781 C 1.652344 4.601562 1.558594 4.566406 1.460938 4.566406 C 1.363281 4.5625 1.265625 4.601562 1.195312 4.675781 L 0.109375 5.648438 C 0.0390625 5.722656 0 5.816406 0 5.910156 C 0 6.007812 0.0390625 6.109375 0.113281 6.183594 L 2.582031 8.777344 C 2.726562 8.921875 2.96875 9.164062 3.113281 9.308594 L 4.175781 10.382812 C 4.320312 10.527344 4.558594 10.527344 4.707031 10.382812 L 11.886719 3.210938 C 12.035156 3.0625 12.035156 2.824219 11.886719 2.675781 Z M 10.824219 1.605469 "/>
</g>
</svg>
